<svg id="Capa_1" data-name="Capa 1" xmlns="http://www.w3.org/2000/svg" viewBox="0 0 727.0099 62.7713"><defs><style>.cls-1{fill:#fff;}</style></defs><title>Alvarezyasociados</title><path class="cls-1" d="M102.9676,58.3448a4.0211,4.0211,0,0,1-2.7262-1.7652L92.942,46.2474c5.4524-8.0353,8.3285-13.5082,8.3285-20.1327V24.9015H86.924v2.0992l1.69.1772c1.7652.1772,2.399.886,2.399,3.0942V43.5144L77.11,23.0272c-4.7708-6.89-5.6773-9.4461-5.6773-12.186a4.3891,4.3891,0,0,1,4.1794-4.5893q.1355-.0063.2711-.0043c1.4108,0,3.0193.7906,4.7708,3.878l3.7213,5.909h2.2968L90.38,5.532A40.6461,40.6461,0,0,0,78.064,3.7328C67.207,3.7328,61.55,9.58,61.55,16.8252c0,3.2646.886,5.8409,3.1828,9.46a23.9833,23.9833,0,0,0-3.96,1.4586,35.6244,35.6244,0,0,1,.2794,4.4436v1.6153a11.5115,11.5115,0,0,1,4.8594-5.7454l1.0633,1.4994L83.0461,52.6a17.428,17.428,0,0,1-8.39,2.2082c-8.3762,0-13.9989-5.2-14.7418-12.888a28.9929,28.9929,0,0,1-7.5379,13.5354c3.21,4.321,8.6556,6.945,15.6755,6.945,7.3266,0,13.1538-3.0874,16.5956-7.4152l4.505,6.7132h16.8546V58.9719Z"/><path class="cls-1" d="M144.2146,59.0877a3.926,3.926,0,0,1-3.2442-3.0806C134.36,38.1643,127.98,20.2329,121.5533,2.39l-8.124,2.6239L98.2241,47.038c-.1159.3271-.2318.6407-.3545.9542l1.9629,2.8693,3.4758-9.5416c6.5224.0886,12.8608.0886,19.2059,0,1.7175,4.6209,3.3532,9.2349,4.9821,13.9444.7224,1.99-.1227,3.4418-2.2968,3.7144l-2.842.45v2.9579H145.53V59.4489ZM104.2216,38.71l8.6011-24.1811c3.0806,8.3285,5.9772,16.3025,8.7851,24.27-5.7931.0954-11.5113.0954-17.3862-.0886Z"/><path class="cls-1" d="M0,59.4489l3.2646-.45a2.9005,2.9005,0,0,0,2.6239-3.0806c.1772-15.3074.1772-30.6149,0-45.8269A2.8012,2.8012,0,0,0,3.386,7.0207q-.0606-.0061-.1214-.01L0,6.4726V3.8418H26.6279C45.1045,3.8418,57.42,14.89,57.42,32.1872c0,17.57-12.0428,29.8857-30.6694,29.8857H.0341v-2.624ZM43.7483,34C43.7483,17.609,35.87,6.65,24.91,6.65a59.8368,59.8368,0,0,0-6.1339.45q-.2725,25.9532,0,51.6269a65.1522,65.1522,0,0,0,7.8787.6338C36.49,59.36,43.7483,49.6688,43.7483,34Z"/><path class="cls-1" d="M192.12,5.31h3.48l7.35,17.28H199l-1.57-3.85h-7.25l-1.57,3.85h-3.85Zm4,10.1-2.28-5.56-2.3,5.55h4.56ZM195.34,0l3.2,1.4-3.33,2.45h-2.87Z"/><path class="cls-1" d="M219.07,5.4h3.77V19.12h8.55v3.43H219.07Z"/><path class="cls-1" d="M243.42,5.4h4.12l4.48,12.08L256.54,5.4h4.07l-6.94,17.28h-3.33Z"/><path class="cls-1" d="M280.17,5.31h3.48L291,22.59h-3.95l-1.57-3.85h-7.25l-1.57,3.85h-3.85Zm4,10.1-2.28-5.56-2.35,5.55h4.56Z"/><path class="cls-1" d="M307.12,5.4h7.84a6.84,6.84,0,0,1,5,1.74,5.39,5.39,0,0,1,1.47,3.92h0a5.33,5.33,0,0,1-3.68,5.32l4.19,6.13h-4.4l-3.68-5.49h-3v5.49h-3.77V5.4Zm7.6,8.33c1.84,0,2.89-1,2.89-2.43h0c0-1.62-1.13-2.45-3-2.45h-3.75v4.93h3.82Z"/><path class="cls-1" d="M338.31,5.4h12.94V8.76h-9.19v3.48h8.09V15.6h-8.09v3.6h9.31v3.36H338.31Z"/><path class="cls-1" d="M367.68,19.72l9.43-11h-9.14V5.4h14V8.27l-9.43,11h9.43v3.31H367.68V19.72Z"/><path class="cls-1" d="M421.7,15.82,415.1,5.4h4.44l4.09,6.89L427.8,5.4h4.29L425.5,15.72v6.84h-3.77V15.8Z"/><path class="cls-1" d="M471.62,5.31h3.48l7.35,17.28h-3.91l-1.57-3.85h-7.25l-1.57,3.85H464.3Zm4,10.1-2.28-5.56-2.28,5.56h4.56Z"/><path class="cls-1" d="M497.14,20.09l2.23-2.67a7.87,7.87,0,0,0,5.12,2.08c1.54,0,2.48-.61,2.48-1.62h0c0-1-.59-1.45-3.46-2.18-3.46-.88-5.69-1.84-5.69-5.24h0c0-3.11,2.5-5.17,6-5.17a9.93,9.93,0,0,1,6.37,2.18l-2,2.84a8.05,8.05,0,0,0-4.46-1.69c-1.45,0-2.21.66-2.21,1.5h0c0,1.13.73,1.5,3.7,2.25,3.48.91,5.44,2.16,5.44,5.15h0c0,3.41-2.6,5.32-6.3,5.32A10.92,10.92,0,0,1,497.14,20.09Z"/><path class="cls-1" d="M526.71,14.06h0a9.12,9.12,0,0,1,18.23,0h0a9.12,9.12,0,0,1-18.23,0Zm14.29,0h0a5.21,5.21,0,0,0-5.0269-5.3869q-.0866-.003-.1731-.0031a5.13,5.13,0,0,0-5.1543,5.1056q-.0006.1173.0043.2344h0a5.21,5.21,0,0,0,5.0268,5.3869c.0578.0021.1154.0031.1731.0032a5.13,5.13,0,0,0,5.1542-5.1058q.0006-.1171-.0043-.2343Z"/><path class="cls-1" d="M561.01,14.06h0a8.72,8.72,0,0,1,8.566-8.8714q.1869-.0033.374.0014a8.85,8.85,0,0,1,6.76,2.65l-2.4,2.77a6.33,6.33,0,0,0-4.39-1.94,5.08,5.08,0,0,0-5.0061,5.1527q.0012.0938.0061.1873h0a5.1,5.1,0,0,0,4.8009,5.3826c.0662.0038.1327.0062.1991.0074a6.19,6.19,0,0,0,4.51-2l2.4,2.43a8.77,8.77,0,0,1-7,3.06,8.66,8.66,0,0,1-8.82-8.4968Q561.0066,14.2267,561.01,14.06Z"/><path class="cls-1" d="M593.54,5.4h3.77V22.55h-3.77Z"/><path class="cls-1" d="M620.92,5.31h3.48l7.35,17.28H627.8l-1.57-3.85h-7.25l-1.57,3.85h-3.87Zm4,10.1-2.28-5.56-2.28,5.56Z"/><path class="cls-1" d="M647.87,5.4h6.67c5.39,0,9.12,3.7,9.12,8.53h0c0,4.83-3.72,8.58-9.12,8.58h-6.69V5.4Zm3.77,3.41V19.15h2.9a4.89,4.89,0,0,0,5.17-5.12h0a4.93,4.93,0,0,0-4.6777-5.17q-.246-.0123-.4923,0h-2.92Z"/><path class="cls-1" d="M679.74,14.06h0a9.12,9.12,0,0,1,18.23,0h0a9.12,9.12,0,0,1-18.23,0Zm14.29,0h0a5.21,5.21,0,0,0-5.0269-5.3869c-.0577-.002-.1153-.003-.1731-.0031a5.13,5.13,0,0,0-5.1543,5.1056q0,.1173.0043.2344h0a5.21,5.21,0,0,0,5.0268,5.3869c.0578.0021.1154.0031.1731.0032a5.13,5.13,0,0,0,5.1543-5.1056Q694.0348,14.1772,694.03,14.06Z"/><path class="cls-1" d="M713.54,20.09l2.23-2.67a7.87,7.87,0,0,0,5.12,2.08c1.54,0,2.48-.61,2.48-1.62h0c0-1-.59-1.45-3.46-2.18-3.46-.88-5.69-1.84-5.69-5.24h0c0-3.11,2.5-5.17,6-5.17a9.92,9.92,0,0,1,6.32,2.11l-2,2.84a8.05,8.05,0,0,0-4.46-1.69c-1.45,0-2.21.66-2.21,1.5h0c0,1.13.74,1.5,3.7,2.25,3.48.91,5.44,2.16,5.44,5.15h0c0,3.41-2.6,5.32-6.3,5.32A10.92,10.92,0,0,1,713.54,20.09Z"/><path class="cls-1" d="M186.12,48.82h9.92v1.41h-8.37v4.69h7.49v1.41h-7.49v4.8h8.47v1.41h-10V48.82Z"/><path class="cls-1" d="M209.13,60.55l1-1.14a6.53,6.53,0,0,0,4.71,1.94c1.84,0,3.06-1,3.06-2.33h0c0-1.27-.69-2-3.57-2.61-3.16-.69-4.61-1.71-4.61-4h0c0-2.16,1.9-3.74,4.51-3.74a7.16,7.16,0,0,1,4.82,1.69l-.9,1.2a6,6,0,0,0-4-1.49c-1.78,0-2.92,1-2.92,2.22h0c0,1.29.71,2,3.73,2.67s4.47,1.78,4.47,3.88h0c0,2.35-2,3.88-4.69,3.88A8,8,0,0,1,209.13,60.55Z"/><path class="cls-1" d="M236.69,50.25h-4.61V48.82h10.78v1.43h-4.61V62.54h-1.57V50.25Z"/><path class="cls-1" d="M256.33,56.8v-8h1.55v7.88c0,3,1.59,4.63,4.2,4.63s4.14-1.53,4.14-4.53v-8h1.55v7.86c0,4-2.29,6.08-5.73,6.08S256.33,60.68,256.33,56.8Z"/><path class="cls-1" d="M282.2,48.82h4.76c4.31,0,7.29,3,7.29,6.82h0c0,3.86-3,6.86-7.29,6.86H282.2Zm1.55,1.43V61.11h3.22a5.31,5.31,0,0,0,5.6772-4.9155q.0169-.2368.0128-.4745h0a5.34,5.34,0,0,0-5.2375-5.4406q-.2263-.0042-.4525.0106h-3.22Z"/><path class="cls-1" d="M308.44,48.82h1.55V62.55h-1.55Z"/><path class="cls-1" d="M324.18,55.72h0a7,7,0,0,1,14,0h0a7,7,0,0,1-14,0Zm12.39,0h0a5.46,5.46,0,0,0-5.2458-5.6662q-.0821-.0031-.1642-.0038a5.39,5.39,0,0,0-5.3753,5.4046q0,.1128.0053.2254h0a5.46,5.46,0,0,0,5.2458,5.6661q.0821.0031.1642.0039a5.39,5.39,0,0,0,5.3452-5.4345q-.0009-.0978-.0052-.1955Z"/><path class="cls-1" d="M365.17,60.31l1.12-1a3.53,3.53,0,0,0,3.14,2c1.55,0,2.69-1.12,2.69-3.29v-9.2h1.57V58a5,5,0,0,1-1.25,3.61,4.21,4.21,0,0,1-3,1.14A4.7,4.7,0,0,1,365.17,60.31Z"/><path class="cls-1" d="M387.91,56.8v-8h1.55v7.88c0,3,1.59,4.63,4.2,4.63s4.14-1.53,4.14-4.53v-8h1.55v7.86c0,4-2.29,6.08-5.73,6.08S387.91,60.68,387.91,56.8Z"/><path class="cls-1" d="M413.78,48.82h5.9a5.41,5.41,0,0,1,3.9,1.37,3.7907,3.7907,0,0,1,1.06,2.71h0c0,2.27-1.57,3.61-3.73,4l4.22,5.61h-1.9l-4-5.33h-3.92v5.33h-1.55V48.82Zm5.76,7c2.06,0,3.53-1.06,3.53-2.82h0c0-1.69-1.29-2.71-3.51-2.71h-4.24v5.57h4.22Z"/><path class="cls-1" d="M438.87,48.82h1.55V62.55h-1.55Zm2.12-3.75,1.55.71-2.25,1.82h-1.25Z"/><path class="cls-1" d="M455.22,48.82h4.76c4.31,0,7.29,3,7.29,6.82h0c0,3.86-3,6.86-7.29,6.86h-4.76Zm1.55,1.43V61.11h3.22a5.31,5.31,0,0,0,5.6771-4.9156q.017-.2367.0128-.4744h0a5.34,5.34,0,0,0-5.2376-5.4406q-.2262-.0042-.4523.0106h-3.22Z"/><path class="cls-1" d="M481.46,48.82h1.55V62.55h-1.55Z"/><path class="cls-1" d="M497.2,55.72h0a6.91,6.91,0,0,1,6.7173-7.0974q.1113-.0031.2227-.0026a7.14,7.14,0,0,1,5.35,2.18l-1.06,1.14a6,6,0,0,0-4.31-1.88,5.38,5.38,0,0,0-5.3155,5.4437q.001.0932.0055.1863h0a5.42,5.42,0,0,0,5.1632,5.6652c.0489.0022.0979.0039.1468.0048a6,6,0,0,0,4.43-2l1,1a7.1507,7.1507,0,0,1-5.49,2.41,6.85,6.85,0,0,1-6.8628-6.8373Q497.197,55.8264,497.2,55.72Z"/><path class="cls-1" d="M522.05,55.72h0a7,7,0,0,1,14,0h0a7,7,0,0,1-14,0Zm12.39,0h0a5.46,5.46,0,0,0-5.2457-5.6662q-.0822-.0031-.1643-.0038a5.39,5.39,0,0,0-5.3754,5.4046q0,.1128.0054.2254h0a5.46,5.46,0,0,0,5.2457,5.6661q.0822.0031.1643.0039a5.39,5.39,0,0,0,5.3754-5.4047Q534.445,55.8328,534.44,55.72Z"/></svg>